<svg version="1.1" xmlns="http://www.w3.org/2000/svg" viewBox="0 0 3327.037148038169 1565.8578489513939" width="3327.037148038169" height="1565.8578489513939">
  <!-- svg-source:excalidraw -->
  
  <defs>
    <style class="style-fonts">
      @font-face {
        font-family: "Virgil";
        src: url("https://excalidraw.com/Virgil.woff2");
      }
      @font-face {
        font-family: "Cascadia";
        src: url("https://excalidraw.com/Cascadia.woff2");
      }
      @font-face {
        font-family: "Assistant";
        src: url("https://excalidraw.com/Assistant-Regular.woff2");
      }
    </style>
    
  </defs>
  <rect x="0" y="0" width="3327.037148038169" height="1565.8578489513939" fill="#ffffff"></rect><g stroke-linecap="round" transform="translate(1530.5913661962704 189.3046875) rotate(0 60.75390625 48.640625)"><path d="M24.32 0 C40.08 0.19, 55.12 -0.77, 97.19 0 M24.32 0 C50.14 1.42, 77.07 0.43, 97.19 0 M97.19 0 C111.75 -0.62, 122.37 8.12, 121.51 24.32 M97.19 0 C112.6 -0.66, 122.31 7.69, 121.51 24.32 M121.51 24.32 C120.95 33.8, 121.85 44.29, 121.51 72.96 M121.51 24.32 C121.16 42.6, 120.38 59.89, 121.51 72.96 M121.51 72.96 C122.76 87.5, 114.83 98.17, 97.19 97.28 M121.51 72.96 C120.12 91.14, 114.56 98.69, 97.19 97.28 M97.19 97.28 C71.97 98.11, 45.07 97.44, 24.32 97.28 M97.19 97.28 C70.73 98.17, 45.48 97.45, 24.32 97.28 M24.32 97.28 C7.5 98.8, 1.17 90.29, 0 72.96 M24.32 97.28 C8.92 97.45, 0.84 86.97, 0 72.96 M0 72.96 C0.21 60.31, -0.37 51.41, 0 24.32 M0 72.96 C-0.63 57.06, -0.21 40.61, 0 24.32 M0 24.32 C-0.2 7.09, 7.6 -1.33, 24.32 0 M0 24.32 C1.84 9.16, 8.56 -1.44, 24.32 0" stroke="#1e1e1e" stroke-width="2" fill="none"></path></g><g transform="translate(1536.975307846661 225.4453125) rotate(0 54.369964599609375 12.5)"><text x="54.369964599609375" y="0" font-family="Virgil, Segoe UI Emoji" font-size="20px" fill="#1e1e1e" text-anchor="middle" style="white-space: pre;" direction="ltr" dominant-baseline="text-before-edge">React APP</text></g><g stroke-linecap="round" transform="translate(1941.2241786962704 187.0078125) rotate(0 60.75390625 48.640625)"><path d="M24.32 0 C39.88 -1.86, 56.81 -1.07, 97.19 0 M24.32 0 C40.75 0.99, 59.04 0.79, 97.19 0 M97.19 0 C113.62 -0.04, 121.14 9.18, 121.51 24.32 M97.19 0 C111.27 -0.56, 122.21 8.38, 121.51 24.32 M121.51 24.32 C122.71 36.57, 119.63 54.16, 121.51 72.96 M121.51 24.32 C121.45 40.57, 120.85 56.26, 121.51 72.96 M121.51 72.96 C122 88.41, 115.15 98.38, 97.19 97.28 M121.51 72.96 C119.42 87.38, 114.94 97.21, 97.19 97.28 M97.19 97.28 C73.74 95.61, 51.43 97.77, 24.32 97.28 M97.19 97.28 C74.69 97.63, 52.63 97.56, 24.32 97.28 M24.32 97.28 C7.25 95.93, 1.87 90.76, 0 72.96 M24.32 97.28 C8.49 98.6, 1.53 87.05, 0 72.96 M0 72.96 C-0.53 54.55, -0.45 41.37, 0 24.32 M0 72.96 C0.9 63.72, -0.21 52.98, 0 24.32 M0 24.32 C-0.64 6.39, 9.53 1.53, 24.32 0 M0 24.32 C0.51 8.52, 9.32 -2.11, 24.32 0" stroke="#1e1e1e" stroke-width="2" fill="none"></path></g><g transform="translate(1962.378109360333 210.6484375) rotate(0 39.5999755859375 25)"><text x="39.5999755859375" y="0" font-family="Virgil, Segoe UI Emoji" font-size="20px" fill="#1e1e1e" text-anchor="middle" style="white-space: pre;" direction="ltr" dominant-baseline="text-before-edge">Strava </text><text x="39.5999755859375" y="25" font-family="Virgil, Segoe UI Emoji" font-size="20px" fill="#1e1e1e" text-anchor="middle" style="white-space: pre;" direction="ltr" dominant-baseline="text-before-edge">OAuth</text></g><g stroke-linecap="round"><g transform="translate(1657.6148036962704 217.37119134502524) rotate(0 139.9765625 -0.830668667266167)"><path d="M1.01 -1.07 C47.59 -1.44, 232.13 -2.39, 278.78 -2.35 M0.08 0.98 C47.06 0.78, 234.12 -0.55, 280.87 -1.18" stroke="#1e1e1e" stroke-width="2" fill="none"></path></g><g transform="translate(1657.6148036962704 217.37119134502524) rotate(0 139.9765625 -0.830668667266167)"><path d="M252.78 9.36 C257.83 4.6, 265.31 5.54, 280.87 -1.18 M252.78 9.36 C262.77 4.6, 274.27 1.09, 280.87 -1.18" stroke="#1e1e1e" stroke-width="2" fill="none"></path></g><g transform="translate(1657.6148036962704 217.37119134502524) rotate(0 139.9765625 -0.830668667266167)"><path d="M252.58 -11.16 C257.65 -10.94, 265.17 -5, 280.87 -1.18 M252.58 -11.16 C262.73 -8.38, 274.3 -4.34, 280.87 -1.18" stroke="#1e1e1e" stroke-width="2" fill="none"></path></g></g><mask></mask><g stroke-linecap="round"><g transform="translate(1924.0249599462704 253.1975223142768) rotate(0 -131.568359375 -0.7003129115961997)"><path d="M0.08 -0.98 C-44.06 -0.97, -220.21 -0.45, -264.06 -0.36 M-1.34 1.12 C-45.18 0.85, -218.1 -1.37, -261.84 -1.93" stroke="#1e1e1e" stroke-width="2" fill="none"></path></g><g transform="translate(1924.0249599462704 253.1975223142768) rotate(0 -131.568359375 -0.7003129115961997)"><path d="M-233.52 -11.83 C-245.58 -9.72, -252.61 -4.36, -261.84 -1.93 M-233.52 -11.83 C-244.73 -8.76, -255.57 -5.4, -261.84 -1.93" stroke="#1e1e1e" stroke-width="2" fill="none"></path></g><g transform="translate(1924.0249599462704 253.1975223142768) rotate(0 -131.568359375 -0.7003129115961997)"><path d="M-233.78 8.69 C-245.68 3.26, -252.6 1.09, -261.84 -1.93 M-233.78 8.69 C-244.95 3.94, -255.69 -0.53, -261.84 -1.93" stroke="#1e1e1e" stroke-width="2" fill="none"></path></g></g><mask></mask><g stroke-linecap="round" transform="translate(1522.4663661962704 10) rotate(0 63.392578125 36.5078125)"><path d="M64.98 -0.53 C75.07 -0.69, 87.78 2.86, 96.59 5.9 C105.4 8.95, 112.94 12.51, 117.83 17.74 C122.73 22.97, 126 31.03, 125.96 37.29 C125.93 43.54, 122.79 49.95, 117.61 55.26 C112.42 60.57, 103.93 66.29, 94.86 69.14 C85.78 71.99, 73.78 72.5, 63.17 72.37 C52.56 72.24, 40.55 71.3, 31.19 68.34 C21.84 65.39, 12.32 60.08, 7.04 54.64 C1.76 49.19, -0.82 41.84, -0.48 35.67 C-0.14 29.51, 3.54 22.89, 9.06 17.66 C14.58 12.43, 21.62 7.24, 32.63 4.28 C43.65 1.32, 66.62 0.21, 75.14 -0.11 C83.66 -0.43, 84.15 1.72, 83.77 2.37 M89.4 2.21 C99.17 4.07, 109.61 11.02, 115.78 16.15 C121.96 21.29, 125.62 27.39, 126.45 33.03 C127.29 38.68, 124.94 44.5, 120.78 50.01 C116.61 55.53, 109.99 62.39, 101.48 66.11 C92.97 69.82, 80.21 71.67, 69.73 72.32 C59.25 72.97, 48.34 72.53, 38.61 70 C28.89 67.47, 17.81 62.23, 11.39 57.13 C4.98 52.03, 1.31 45.39, 0.13 39.39 C-1.06 33.4, 0.16 26.64, 4.29 21.15 C8.41 15.66, 16.05 9.73, 24.87 6.44 C33.7 3.16, 46.46 1.91, 57.23 1.46 C67.99 1.02, 84.15 3.45, 89.46 3.79 C94.76 4.13, 89.54 3.05, 89.05 3.5" stroke="#1e1e1e" stroke-width="2" fill="none"></path></g><g transform="translate(1563.6936413730832 34.192890714963) rotate(0 22.339981079101562 12.5)"><text x="22.339981079101562" y="0" font-family="Virgil, Segoe UI Emoji" font-size="20px" fill="#1e1e1e" text-anchor="middle" style="white-space: pre;" direction="ltr" dominant-baseline="text-before-edge">User</text></g><g transform="translate(1740.6694911962704 188.35546875) rotate(0 45.75994873046875 12.5)"><text x="0" y="0" font-family="Virgil, Segoe UI Emoji" font-size="20px" fill="#1e1e1e" text-anchor="start" style="white-space: pre;" direction="ltr" dominant-baseline="text-before-edge">Authorise</text></g><g transform="translate(1705.0288661962704 267.1640625) rotate(0 96.27992248535156 12.5)"><text x="0" y="0" font-family="Virgil, Segoe UI Emoji" font-size="20px" fill="#1e1e1e" text-anchor="start" style="white-space: pre;" direction="ltr" dominant-baseline="text-before-edge">One time Use token</text></g><g stroke-linecap="round" transform="translate(81.02793865424712 201.2781076323481) rotate(0 82.59375 39.533203125)"><path d="M19.77 0 C58.94 -0.12, 92.52 -0.37, 145.42 0 M19.77 0 C50.99 1.31, 82.44 0.7, 145.42 0 M145.42 0 C158.89 -0.19, 165.26 8.34, 165.19 19.77 M145.42 0 C157 -0.78, 165.87 7.03, 165.19 19.77 M165.19 19.77 C163.1 31.57, 164.82 47.03, 165.19 59.3 M165.19 19.77 C164.85 34.59, 164.18 47.03, 165.19 59.3 M165.19 59.3 C165.1 72.58, 158.44 79.83, 145.42 79.07 M165.19 59.3 C165.15 71.06, 158.99 79.07, 145.42 79.07 M145.42 79.07 C116.38 78.24, 87.79 79.95, 19.77 79.07 M145.42 79.07 C101.53 78.64, 56.58 79.68, 19.77 79.07 M19.77 79.07 C5.75 78.32, 1.56 71.72, 0 59.3 M19.77 79.07 C6.16 79.87, -0.73 74.77, 0 59.3 M0 59.3 C-1.91 49.48, -1.84 43.43, 0 19.77 M0 59.3 C0.41 51.25, 0.84 41.29, 0 19.77 M0 19.77 C-1.14 5.96, 6.08 2, 19.77 0 M0 19.77 C-0.58 8.28, 5.88 1.21, 19.77 0" stroke="#1e1e1e" stroke-width="2" fill="none"></path></g><g transform="translate(98.24173717719634 215.8113107573481) rotate(0 65.37995147705078 25)"><text x="65.37995147705078" y="0" font-family="Virgil, Segoe UI Emoji" font-size="20px" fill="#1e1e1e" text-anchor="middle" style="white-space: pre;" direction="ltr" dominant-baseline="text-before-edge">Get Athlete </text><text x="65.37995147705078" y="25" font-family="Virgil, Segoe UI Emoji" font-size="20px" fill="#1e1e1e" text-anchor="middle" style="white-space: pre;" direction="ltr" dominant-baseline="text-before-edge">Call</text></g><g stroke-linecap="round" transform="translate(934.7241786962704 179.05078125) rotate(0 82.59375 65.29296875)"><path d="M32 0 C70.14 -0.2, 112.63 0.03, 133.19 0 M32 0 C72.35 -0.56, 111.57 -0.63, 133.19 0 M133.19 0 C155.7 -1.11, 164.52 11.39, 165.19 32 M133.19 0 C153.16 -0.87, 165.42 9.04, 165.19 32 M165.19 32 C164.18 52.11, 163.54 77.61, 165.19 98.59 M165.19 32 C164.63 56.98, 165.42 80.82, 165.19 98.59 M165.19 98.59 C165.53 118.48, 153.91 129.08, 133.19 130.59 M165.19 98.59 C165.95 121.55, 155.68 129, 133.19 130.59 M133.19 130.59 C93.3 131.42, 58.95 132.82, 32 130.59 M133.19 130.59 C102.77 131.64, 71.04 130.59, 32 130.59 M32 130.59 C9.33 130.93, -0.75 119.26, 0 98.59 M32 130.59 C9.1 128.77, 0.57 118.17, 0 98.59 M0 98.59 C-1.02 82.48, 2.09 68.33, 0 32 M0 98.59 C-0.61 72.87, -0.74 46, 0 32 M0 32 C-0.07 9.62, 8.68 0.82, 32 0 M0 32 C1.52 10.08, 11.72 2.15, 32 0" stroke="#1e1e1e" stroke-width="2" fill="none"></path></g><g transform="translate(943.9079936987118 194.34375) rotate(0 73.4099349975586 50)"><text x="73.4099349975586" y="0" font-family="Virgil, Segoe UI Emoji" font-size="20px" fill="#1e1e1e" text-anchor="middle" style="white-space: pre;" direction="ltr" dominant-baseline="text-before-edge">Get Access </text><text x="73.4099349975586" y="25" font-family="Virgil, Segoe UI Emoji" font-size="20px" fill="#1e1e1e" text-anchor="middle" style="white-space: pre;" direction="ltr" dominant-baseline="text-before-edge">Token, Refresh</text><text x="73.4099349975586" y="50" font-family="Virgil, Segoe UI Emoji" font-size="20px" fill="#1e1e1e" text-anchor="middle" style="white-space: pre;" direction="ltr" dominant-baseline="text-before-edge">Token, Expire </text><text x="73.4099349975586" y="75" font-family="Virgil, Segoe UI Emoji" font-size="20px" fill="#1e1e1e" text-anchor="middle" style="white-space: pre;" direction="ltr" dominant-baseline="text-before-edge">By</text></g><g stroke-linecap="round"><g transform="translate(922.5583558312468 239.79163305372072) rotate(0 -337.03473983849983 2.9958283422029126)"><path d="M0.89 0.14 C-111.61 1.45, -562.13 5.85, -674.54 6.78 M-0.1 -0.83 C-112.85 0.24, -563.4 3.79, -675.73 5.07" stroke="#1e1e1e" stroke-width="2" fill="none"></path></g><g transform="translate(922.5583558312468 239.79163305372072) rotate(0 -337.03473983849983 2.9958283422029126)"><path d="M-647.64 -5.45 C-657.03 -2.46, -665.47 2.69, -675.73 5.07 M-647.64 -5.45 C-655.78 -2.55, -663.34 1.2, -675.73 5.07" stroke="#1e1e1e" stroke-width="2" fill="none"></path></g><g transform="translate(922.5583558312468 239.79163305372072) rotate(0 -337.03473983849983 2.9958283422029126)"><path d="M-647.45 15.07 C-656.71 11.11, -665.22 9.3, -675.73 5.07 M-647.45 15.07 C-655.84 12.31, -663.45 10.39, -675.73 5.07" stroke="#1e1e1e" stroke-width="2" fill="none"></path></g></g><mask></mask><g stroke-linecap="round"><g transform="translate(161.4216698381133 283.7634279446916) rotate(0 -0.21275888148431932 63.348118547648625)"><path d="M0.36 0.66 C0.09 22, -1.11 106.5, -1.36 127.64 M-0.91 -0.03 C-0.84 21.01, 0.48 105.08, 0.87 126.02" stroke="#1e1e1e" stroke-width="2" fill="none"></path></g><g transform="translate(161.4216698381133 283.7634279446916) rotate(0 -0.21275888148431932 63.348118547648625)"><path d="M-9.86 98 C-5.38 105.46, -1.44 114.87, 0.87 126.02 M-9.86 98 C-6 108.37, -2.58 117.82, 0.87 126.02" stroke="#1e1e1e" stroke-width="2" fill="none"></path></g><g transform="translate(161.4216698381133 283.7634279446916) rotate(0 -0.21275888148431932 63.348118547648625)"><path d="M10.66 97.66 C8.52 105.29, 5.84 114.81, 0.87 126.02 M10.66 97.66 C6.94 107.95, 2.79 117.52, 0.87 126.02" stroke="#1e1e1e" stroke-width="2" fill="none"></path></g></g><mask></mask><g stroke-linecap="round" transform="translate(10 423.6606304337008) rotate(0 134.109375 75.6171875)"><path d="M32 0 C79.45 -0.42, 123.81 -0.43, 236.22 0 M32 0 C82.45 -0.86, 133.23 -0.47, 236.22 0 M236.22 0 C256.6 -1.02, 268.46 10.14, 268.22 32 M236.22 0 C256.12 -1.63, 269.01 8.88, 268.22 32 M268.22 32 C267.5 54.1, 270.05 78.49, 268.22 119.23 M268.22 32 C268.02 60.6, 267.09 89.53, 268.22 119.23 M268.22 119.23 C268.58 139.88, 257.35 151.76, 236.22 151.23 M268.22 119.23 C268.52 140.31, 255.47 150.03, 236.22 151.23 M236.22 151.23 C188.81 151.41, 142.74 151.87, 32 151.23 M236.22 151.23 C172.18 152.41, 108.01 153.24, 32 151.23 M32 151.23 C11.03 152.01, -0.27 140.09, 0 119.23 M32 151.23 C10.3 153.42, -0.64 140.7, 0 119.23 M0 119.23 C-1.45 102.81, -1.05 84.66, 0 32 M0 119.23 C-0.68 91.72, 0.35 64.19, 0 32 M0 32 C-1.91 9.2, 10.27 -1.55, 32 0 M0 32 C-0.07 10.59, 10.13 -2.2, 32 0" stroke="#1e1e1e" stroke-width="2" fill="none"></path></g><g transform="translate(53.51994370090051 445.3626089976676) rotate(0 114.75990295410156 50)"><text x="0" y="0" font-family="Virgil, Segoe UI Emoji" font-size="20px" fill="#1e1e1e" text-anchor="start" style="white-space: pre;" direction="ltr" dominant-baseline="text-before-edge">Returns Athlete info </text><text x="0" y="25" font-family="Virgil, Segoe UI Emoji" font-size="20px" fill="#1e1e1e" text-anchor="start" style="white-space: pre;" direction="ltr" dominant-baseline="text-before-edge">- we need their ID</text><text x="0" y="50" font-family="Virgil, Segoe UI Emoji" font-size="20px" fill="#1e1e1e" text-anchor="start" style="white-space: pre;" direction="ltr" dominant-baseline="text-before-edge">Save this to athletes </text><text x="0" y="75" font-family="Virgil, Segoe UI Emoji" font-size="20px" fill="#1e1e1e" text-anchor="start" style="white-space: pre;" direction="ltr" dominant-baseline="text-before-edge">profile on chain.</text></g><g stroke-linecap="round" transform="translate(1229.4741786962704 186.52734375) rotate(0 98.857421875 53.00390625)"><path d="M26.5 0 C71.11 -0.95, 115.75 0.65, 171.21 0 C191.71 -0.66, 198.47 8.65, 197.71 26.5 C200.47 47.07, 194.88 60.58, 197.71 79.51 C195.77 94.31, 190.45 109.43, 171.21 106.01 C133.6 108.45, 99.57 105.62, 26.5 106.01 C11.07 105.25, -2.31 96.08, 0 79.51 C1.69 64, -2.19 40.28, 0 26.5 C0.16 8.36, 9.8 0.86, 26.5 0" stroke="none" stroke-width="0" fill="#ffec99"></path><path d="M26.5 0 C82.95 -0.7, 138.79 1.17, 171.21 0 M26.5 0 C60.19 1.76, 91.97 2.33, 171.21 0 M171.21 0 C188.08 0.61, 197.41 8.48, 197.71 26.5 M171.21 0 C187.78 -0.67, 196.2 11.02, 197.71 26.5 M197.71 26.5 C198.24 46.81, 197.42 68.71, 197.71 79.51 M197.71 26.5 C197.76 47.87, 197.61 67.88, 197.71 79.51 M197.71 79.51 C196.57 96.28, 188.09 106.02, 171.21 106.01 M197.71 79.51 C197.54 99.08, 190.64 104.97, 171.21 106.01 M171.21 106.01 C124.44 105.12, 77.07 104.49, 26.5 106.01 M171.21 106.01 C133.35 106.44, 97.24 105.51, 26.5 106.01 M26.5 106.01 C9.54 107.89, 1.82 97.95, 0 79.51 M26.5 106.01 C8.85 104.3, -0.09 96.79, 0 79.51 M0 79.51 C-1.12 59.27, 0.72 42.89, 0 26.5 M0 79.51 C-0.64 65.2, 0.98 51.47, 0 26.5 M0 26.5 C0.2 7.29, 9.68 0.74, 26.5 0 M0 26.5 C-1.25 9.85, 10.53 -0.64, 26.5 0" stroke="#1e1e1e" stroke-width="2" fill="none"></path></g><g transform="translate(1246.6944513592064 202.734619140625) rotate(0 84.11994171142578 37.5)"><text x="0" y="0" font-family="Virgil, Segoe UI Emoji" font-size="20px" fill="#1e1e1e" text-anchor="start" style="white-space: pre;" direction="ltr" dominant-baseline="text-before-edge">We might need a</text><text x="0" y="25" font-family="Virgil, Segoe UI Emoji" font-size="20px" fill="#1e1e1e" text-anchor="start" style="white-space: pre;" direction="ltr" dominant-baseline="text-before-edge">backend to deal </text><text x="0" y="50" font-family="Virgil, Segoe UI Emoji" font-size="20px" fill="#1e1e1e" text-anchor="start" style="white-space: pre;" direction="ltr" dominant-baseline="text-before-edge">with this call </text></g><g stroke-linecap="round"><g transform="translate(1589.4568400314638 88.21583429996178) rotate(0 -0.9158718547784588 47.56212679533161)"><path d="M-0.05 0.16 C-0.21 16, -0.55 80.15, -0.83 96.09 M-1.53 -0.8 C-1.78 15.24, -1.11 78.71, -1.25 94.48" stroke="#1e1e1e" stroke-width="2" fill="none"></path></g><g transform="translate(1589.4568400314638 88.21583429996178) rotate(0 -0.9158718547784588 47.56212679533161)"><path d="M-11.56 66.3 C-7.83 76.76, -3.28 84.1, -1.25 94.48 M-11.56 66.3 C-7.35 76.11, -4.55 87.4, -1.25 94.48" stroke="#1e1e1e" stroke-width="2" fill="none"></path></g><g transform="translate(1589.4568400314638 88.21583429996178) rotate(0 -0.9158718547784588 47.56212679533161)"><path d="M8.96 66.27 C6.3 76.72, 4.46 84.08, -1.25 94.48 M8.96 66.27 C5.86 75.88, 1.35 87.18, -1.25 94.48" stroke="#1e1e1e" stroke-width="2" fill="none"></path></g></g><mask></mask><g stroke-linecap="round" transform="translate(2590.4668654554425 675.4509007769977) rotate(0 71.482421875 50.3671875)"><path d="M25.18 0 C59.19 1.95, 88.27 0.62, 117.78 0 M25.18 0 C56.2 0.15, 87.69 0.06, 117.78 0 M117.78 0 C135.08 -1.91, 143.35 9.1, 142.96 25.18 M117.78 0 C132.38 0, 142.69 8.68, 142.96 25.18 M142.96 25.18 C142.98 40.06, 144.51 50.08, 142.96 75.55 M142.96 25.18 C143.94 44.34, 143.26 64.52, 142.96 75.55 M142.96 75.55 C141.56 94.02, 133.47 99.3, 117.78 100.73 M142.96 75.55 C143.01 91.84, 136.23 100.77, 117.78 100.73 M117.78 100.73 C91.02 100.26, 62.32 103.14, 25.18 100.73 M117.78 100.73 C83.94 101.17, 50.34 101, 25.18 100.73 M25.18 100.73 C9.55 101.67, 1.99 92.36, 0 75.55 M25.18 100.73 C8.4 99.29, 0.6 92.35, 0 75.55 M0 75.55 C0.08 54.59, 1.25 36.06, 0 25.18 M0 75.55 C1.15 61.44, -0.53 49.28, 0 25.18 M0 25.18 C0.69 9.71, 6.41 1.8, 25.18 0 M0 25.18 C-1.82 8.85, 8.01 2.25, 25.18 0" stroke="#1e1e1e" stroke-width="2" fill="none"></path></g><g transform="translate(2618.009323036009 700.8180882769977) rotate(0 43.939964294433594 25)"><text x="43.939964294433594" y="0" font-family="Virgil, Segoe UI Emoji" font-size="20px" fill="#1e1e1e" text-anchor="middle" style="white-space: pre;" direction="ltr" dominant-baseline="text-before-edge">Smart </text><text x="43.939964294433594" y="25" font-family="Virgil, Segoe UI Emoji" font-size="20px" fill="#1e1e1e" text-anchor="middle" style="white-space: pre;" direction="ltr" dominant-baseline="text-before-edge">Contract</text></g><g stroke-linecap="round" transform="translate(2587.7032706726905 496.94308827699774) rotate(0 69.884765625 41.732421875)"><path d="M20.87 0 C40.9 2.71, 61.53 1.26, 118.9 0 M20.87 0 C50.85 0.12, 78.43 0.07, 118.9 0 M118.9 0 C134.06 0.42, 140.81 7.92, 139.77 20.87 M118.9 0 C133.01 -1.29, 139.78 4.88, 139.77 20.87 M139.77 20.87 C139.49 34.54, 141.07 51.78, 139.77 62.6 M139.77 20.87 C138.71 32.28, 138.47 43.04, 139.77 62.6 M139.77 62.6 C139.56 76.61, 134.31 84.3, 118.9 83.46 M139.77 62.6 C137.76 76.58, 134.89 81.79, 118.9 83.46 M118.9 83.46 C97.09 86.01, 71.64 84.3, 20.87 83.46 M118.9 83.46 C80.3 84.62, 44.12 82.84, 20.87 83.46 M20.87 83.46 C6.54 83.83, -1.7 75.1, 0 62.6 M20.87 83.46 C5.02 82.24, 0.24 75.83, 0 62.6 M0 62.6 C1.67 50.33, -1.95 34.06, 0 20.87 M0 62.6 C0.06 51.09, 0.48 38.15, 0 20.87 M0 20.87 C1.04 7.9, 6.92 -1.78, 20.87 0 M0 20.87 C2.07 6.85, 7.42 -0.19, 20.87 0" stroke="#1e1e1e" stroke-width="2" fill="none"></path></g><g transform="translate(2603.1080863465186 513.6755101519977) rotate(0 54.479949951171875 25)"><text x="54.479949951171875" y="0" font-family="Virgil, Segoe UI Emoji" font-size="20px" fill="#1e1e1e" text-anchor="middle" style="white-space: pre;" direction="ltr" dominant-baseline="text-before-edge">Chainlink </text><text x="54.479949951171875" y="25" font-family="Virgil, Segoe UI Emoji" font-size="20px" fill="#1e1e1e" text-anchor="middle" style="white-space: pre;" direction="ltr" dominant-baseline="text-before-edge">Automation</text></g><g stroke-linecap="round"><g transform="translate(2656.7867802187375 587.1735570269979) rotate(0 -0.580632543747015 42.38671874999994)"><path d="M0.8 -0.58 C0.64 13.86, -0.86 71.62, -1.29 85.73 M-0.23 1.74 C-0.54 15.93, -1.86 70.22, -2.31 84.11" stroke="#1e1e1e" stroke-width="2" fill="none"></path></g><g transform="translate(2656.7867802187375 587.1735570269979) rotate(0 -0.580632543747015 42.38671874999994)"><path d="M-11.79 55.64 C-10.36 63.18, -5.2 70.13, -2.31 84.11 M-11.79 55.64 C-10 62.81, -7.13 69.01, -2.31 84.11" stroke="#1e1e1e" stroke-width="2" fill="none"></path></g><g transform="translate(2656.7867802187375 587.1735570269979) rotate(0 -0.580632543747015 42.38671874999994)"><path d="M8.73 56.21 C4.52 63.73, 4.04 70.53, -2.31 84.11 M8.73 56.21 C5.49 63.18, 3.35 69.24, -2.31 84.11" stroke="#1e1e1e" stroke-width="2" fill="none"></path></g></g><mask></mask><g stroke-linecap="round"><g transform="translate(2655.6394693653738 781.4078099566852) rotate(0 1.1133326252532925 31.184869950040593)"><path d="M1.06 -0.89 C1.42 9.41, 1.72 51.18, 1.81 61.91 M0.16 1.26 C0.35 11.71, 0.59 53.12, 0.65 63.2" stroke="#1e1e1e" stroke-width="2" fill="none"></path></g><g transform="translate(2655.6394693653738 781.4078099566852) rotate(0 1.1133326252532925 31.184869950040593)"><path d="M-9.78 35.07 C-8.4 41.95, -4.84 49.28, 0.65 63.2 M-9.78 35.07 C-4.67 45.18, -0.63 57.71, 0.65 63.2" stroke="#1e1e1e" stroke-width="2" fill="none"></path></g><g transform="translate(2655.6394693653738 781.4078099566852) rotate(0 1.1133326252532925 31.184869950040593)"><path d="M10.74 34.95 C6.54 42.04, 4.5 49.41, 0.65 63.2 M10.74 34.95 C7.78 45.14, 3.75 57.72, 0.65 63.2" stroke="#1e1e1e" stroke-width="2" fill="none"></path></g></g><mask></mask><g stroke-linecap="round" transform="translate(2532.595917624786 843.5768148391842) rotate(0 123.306640625 85)"><path d="M155 21.5 C177.68 38.11, 199.31 51.35, 215.61 64.5 M155 21.5 C168.33 31.44, 183.24 41.95, 215.61 64.5 M215.61 64.5 C247.35 87.43, 245.73 84.16, 215.61 107.5 M215.61 64.5 C246.41 86.12, 248.05 85.86, 215.61 107.5 M215.61 107.5 C197.78 120.16, 179 133.44, 155 148.5 M215.61 107.5 C201.06 117.19, 187.77 126.65, 155 148.5 M155 148.5 C122.79 169.63, 122.8 171.28, 93 148.5 M155 148.5 C123.44 170.53, 123.98 170.31, 93 148.5 M93 148.5 C73.05 132.98, 49.44 122.08, 31 107.5 M93 148.5 C72.23 134.23, 49.72 118.9, 31 107.5 M31 107.5 C1.56 84.91, -0.48 84.18, 31 64.5 M31 107.5 C-0.15 87.21, 0.85 87.87, 31 64.5 M31 64.5 C46.59 52.93, 64.42 43.54, 93 21.5 M31 64.5 C46.56 52.44, 63.34 40.96, 93 21.5 M93 21.5 C124.23 -0.85, 124.81 0.74, 155 21.5 M93 21.5 C125.81 2.22, 124.19 -1.88, 155 21.5" stroke="#1e1e1e" stroke-width="2" fill="none"></path></g><g transform="translate(2600.949273032501 891.0768148391842) rotate(0 54.799964904785156 37.5)"><text x="54.799964904785156" y="0" font-family="Virgil, Segoe UI Emoji" font-size="20px" fill="#1e1e1e" text-anchor="middle" style="white-space: pre;" direction="ltr" dominant-baseline="text-before-edge">Competition</text><text x="54.799964904785156" y="25" font-family="Virgil, Segoe UI Emoji" font-size="20px" fill="#1e1e1e" text-anchor="middle" style="white-space: pre;" direction="ltr" dominant-baseline="text-before-edge">due a pay </text><text x="54.799964904785156" y="50" font-family="Virgil, Segoe UI Emoji" font-size="20px" fill="#1e1e1e" text-anchor="middle" style="white-space: pre;" direction="ltr" dominant-baseline="text-before-edge">out event?</text></g><g stroke-linecap="round"><g transform="translate(1522.7915235384198 237.60967079132018) rotate(0 -46.35244260614763 2.488333565112754)"><path d="M0.67 -0.76 C-14.68 0.32, -76.55 4.38, -92.28 5.48 M-0.43 1.46 C-15.89 2.26, -77.86 3.2, -93 3.63" stroke="#1e1e1e" stroke-width="2" fill="none"></path></g><g transform="translate(1522.7915235384198 237.60967079132018) rotate(0 -46.35244260614763 2.488333565112754)"><path d="M-65.03 -7.23 C-74.4 -3.25, -80.3 -2.46, -93 3.63 M-65.03 -7.23 C-76.17 -2.28, -86.97 1.38, -93 3.63" stroke="#1e1e1e" stroke-width="2" fill="none"></path></g><g transform="translate(1522.7915235384198 237.60967079132018) rotate(0 -46.35244260614763 2.488333565112754)"><path d="M-64.6 13.29 C-73.92 11.39, -79.95 6.3, -93 3.63 M-64.6 13.29 C-75.93 10.51, -86.89 6.45, -93 3.63" stroke="#1e1e1e" stroke-width="2" fill="none"></path></g></g><mask></mask><g stroke-linecap="round"><g transform="translate(1224.8036315872246 237.52699369961738) rotate(0 -61.273967756395905 1.681922004329067)"><path d="M0.15 0.61 C-20.15 1.14, -102.16 4, -122.65 4.36 M-1.23 -0.11 C-21.62 0.61, -103.24 2.11, -123.64 2.77" stroke="#1e1e1e" stroke-width="2" fill="none"></path></g><g transform="translate(1224.8036315872246 237.52699369961738) rotate(0 -61.273967756395905 1.681922004329067)"><path d="M-95.71 -8.18 C-101.01 -5.79, -106.8 -3.47, -123.64 2.77 M-95.71 -8.18 C-103.32 -5.14, -110.79 -2.9, -123.64 2.77" stroke="#1e1e1e" stroke-width="2" fill="none"></path></g><g transform="translate(1224.8036315872246 237.52699369961738) rotate(0 -61.273967756395905 1.681922004329067)"><path d="M-95.21 12.33 C-100.83 10, -106.73 7.6, -123.64 2.77 M-95.21 12.33 C-103 10.14, -110.6 7.15, -123.64 2.77" stroke="#1e1e1e" stroke-width="2" fill="none"></path></g></g><mask></mask><g stroke-linecap="round" transform="translate(969.7756269742636 686.7379953870542) rotate(0 82.59375 39.533203125)"><path d="M19.77 0 C52.9 -0.27, 84.51 0.05, 145.42 0 M19.77 0 C47.42 -1.55, 73.98 0.21, 145.42 0 M145.42 0 C157.69 0.82, 163.41 6.53, 165.19 19.77 M145.42 0 C157.13 0.78, 166.83 6.07, 165.19 19.77 M165.19 19.77 C165.2 29.45, 163.54 36.51, 165.19 59.3 M165.19 19.77 C165.6 31.46, 165.11 44.8, 165.19 59.3 M165.19 59.3 C163.96 72.82, 157.09 80.8, 145.42 79.07 M165.19 59.3 C167.23 71.74, 158.45 77.31, 145.42 79.07 M145.42 79.07 C114.26 76.93, 83.89 76.83, 19.77 79.07 M145.42 79.07 C104.49 78.41, 63.48 77.76, 19.77 79.07 M19.77 79.07 C5.18 80.86, 1.49 71.74, 0 59.3 M19.77 79.07 C7.41 76.87, 0.37 73.37, 0 59.3 M0 59.3 C0.71 47.42, 1.51 34.96, 0 19.77 M0 59.3 C-0.51 45.87, 0.57 31.65, 0 19.77 M0 19.77 C1.47 5.03, 4.84 -1.96, 19.77 0 M0 19.77 C-0.62 5.18, 4.8 -1.15, 19.77 0" stroke="#1e1e1e" stroke-width="2" fill="none"></path></g><g transform="translate(986.9894254972128 701.2711985120542) rotate(0 65.37995147705078 25)"><text x="65.37995147705078" y="0" font-family="Virgil, Segoe UI Emoji" font-size="20px" fill="#1e1e1e" text-anchor="middle" style="white-space: pre;" direction="ltr" dominant-baseline="text-before-edge">Get Athlete </text><text x="65.37995147705078" y="25" font-family="Virgil, Segoe UI Emoji" font-size="20px" fill="#1e1e1e" text-anchor="middle" style="white-space: pre;" direction="ltr" dominant-baseline="text-before-edge">stats</text></g><g stroke-linecap="round"><g transform="translate(1047.663176006047 773.6715567897942) rotate(0 1.9372625407339683 59.8155891016749)"><path d="M-0.57 -1.01 C0.23 18.91, 3.18 100.25, 4.03 120.15 M1.34 1.07 C2.06 20.58, 2.71 98.63, 3.17 118.31" stroke="#1e1e1e" stroke-width="2" fill="none"></path></g><g transform="translate(1047.663176006047 773.6715567897942) rotate(0 1.9372625407339683 59.8155891016749)"><path d="M-7.52 90.28 C-6.52 97.24, -1.43 104.7, 3.17 118.31 M-7.52 90.28 C-5.84 96.22, -4.13 101.39, 3.17 118.31" stroke="#1e1e1e" stroke-width="2" fill="none"></path></g><g transform="translate(1047.663176006047 773.6715567897942) rotate(0 1.9372625407339683 59.8155891016749)"><path d="M13 89.96 C9.13 96.9, 9.36 104.44, 3.17 118.31 M13 89.96 C10.57 96.12, 8.17 101.36, 3.17 118.31" stroke="#1e1e1e" stroke-width="2" fill="none"></path></g></g><mask></mask><g transform="translate(933.7754591128519 914.388672493144) rotate(0 118.47990417480469 50)"><text x="0" y="0" font-family="Virgil, Segoe UI Emoji" font-size="20px" fill="#1e1e1e" text-anchor="start" style="white-space: pre;" direction="ltr" dominant-baseline="text-before-edge">Returns Athlete stats </text><text x="0" y="25" font-family="Virgil, Segoe UI Emoji" font-size="20px" fill="#1e1e1e" text-anchor="start" style="white-space: pre;" direction="ltr" dominant-baseline="text-before-edge">We need the total miles</text><text x="0" y="50" font-family="Virgil, Segoe UI Emoji" font-size="20px" fill="#1e1e1e" text-anchor="start" style="white-space: pre;" direction="ltr" dominant-baseline="text-before-edge">and save this to the </text><text x="0" y="75" font-family="Virgil, Segoe UI Emoji" font-size="20px" fill="#1e1e1e" text-anchor="start" style="white-space: pre;" direction="ltr" dominant-baseline="text-before-edge">athletes profile struct.</text></g><g stroke-linecap="round" transform="translate(912.6426466128519 900.039063118144) rotate(0 134.109375 75.6171875)"><path d="M32 0 C94.18 -1.01, 161.28 -1.8, 236.22 0 M32 0 C101.04 0.35, 171.85 -0.15, 236.22 0 M236.22 0 C256.19 -1.03, 268.23 10.88, 268.22 32 M236.22 0 C258.16 -1.66, 266.41 10.99, 268.22 32 M268.22 32 C267.55 54.54, 269.4 75.48, 268.22 119.23 M268.22 32 C268.45 59.32, 267.5 86.53, 268.22 119.23 M268.22 119.23 C267 140.42, 256.73 150.08, 236.22 151.23 M268.22 119.23 C266.36 138.84, 255.57 151.84, 236.22 151.23 M236.22 151.23 C183.21 151.37, 128.47 150.07, 32 151.23 M236.22 151.23 C156.91 149.71, 77.12 150.91, 32 151.23 M32 151.23 C11.15 152.29, -0.68 141.49, 0 119.23 M32 151.23 C11.74 153.21, 1.47 141.93, 0 119.23 M0 119.23 C1.31 93.66, 1.28 67.16, 0 32 M0 119.23 C0.49 99.24, -0.01 79.98, 0 32 M0 32 C-0.06 12.59, 10.66 -1.24, 32 0 M0 32 C-0.13 12.66, 8.49 -0.96, 32 0" stroke="#1e1e1e" stroke-width="2" fill="none"></path></g><g stroke-linecap="round"><g transform="translate(1587.9002616490432 293.8049891865753) rotate(0 2.39205746651578 48.997043652428204)"><path d="M0.78 -0.75 C1.52 15.87, 3.48 82.18, 4.18 98.71 M-0.28 1.47 C0.9 17.84, 5.82 81.16, 6.58 96.96" stroke="#1e1e1e" stroke-width="2" fill="none"></path></g><g transform="translate(1587.9002616490432 293.8049891865753) rotate(0 2.39205746651578 48.997043652428204)"><path d="M-5.49 69.5 C-3.66 75.95, 2.09 84.8, 6.58 96.96 M-5.49 69.5 C-2 78.79, 3.67 88.61, 6.58 96.96" stroke="#1e1e1e" stroke-width="2" fill="none"></path></g><g transform="translate(1587.9002616490432 293.8049891865753) rotate(0 2.39205746651578 48.997043652428204)"><path d="M14.99 68.16 C11.18 75.12, 11.31 84.33, 6.58 96.96 M14.99 68.16 C11.65 77.96, 10.48 88.22, 6.58 96.96" stroke="#1e1e1e" stroke-width="2" fill="none"></path></g></g><mask></mask><g stroke-linecap="round" transform="translate(1457.7055680814233 405.0884733809004) rotate(0 145.38113324919334 60.54365951767409)"><path d="M30.27 0 C98.46 0.12, 167.97 1.84, 260.49 0 M30.27 0 C97.05 0.36, 162.93 -0.09, 260.49 0 M260.49 0 C279.71 -1.08, 292.08 10.28, 290.76 30.27 M260.49 0 C278.63 -0.74, 289.34 8.65, 290.76 30.27 M290.76 30.27 C291.4 44.2, 291.96 59.28, 290.76 90.82 M290.76 30.27 C291.28 43.84, 290.06 58.23, 290.76 90.82 M290.76 90.82 C290.23 112.55, 280.96 121.98, 260.49 121.09 M290.76 90.82 C290.18 109.32, 279.36 122.39, 260.49 121.09 M260.49 121.09 C213.16 120.79, 169.11 119.36, 30.27 121.09 M260.49 121.09 C183.89 121.41, 107.99 122.87, 30.27 121.09 M30.27 121.09 C8.83 120.16, 0.39 112.05, 0 90.82 M30.27 121.09 C11.07 121.2, 1.27 110.68, 0 90.82 M0 90.82 C-2.02 68.57, 0.86 44.52, 0 30.27 M0 90.82 C-0.79 71.91, 0.39 50.41, 0 30.27 M0 30.27 C1.19 10.24, 11.51 0.21, 30.27 0 M0 30.27 C-1.87 8.5, 10.87 -1.87, 30.27 0" stroke="#1e1e1e" stroke-width="2" fill="none"></path></g><g transform="translate(1475.8083601806488 441.5264283825817) rotate(0 104.9299087524414 37.5)"><text x="0" y="0" font-family="Virgil, Segoe UI Emoji" font-size="20px" fill="#1e1e1e" text-anchor="start" style="white-space: pre;" direction="ltr" dominant-baseline="text-before-edge">Begin competition.</text><text x="0" y="25" font-family="Virgil, Segoe UI Emoji" font-size="20px" fill="#1e1e1e" text-anchor="start" style="white-space: pre;" direction="ltr" dominant-baseline="text-before-edge">Call chainlinkfunctions</text><text x="0" y="50" font-family="Virgil, Segoe UI Emoji" font-size="20px" fill="#1e1e1e" text-anchor="start" style="white-space: pre;" direction="ltr" dominant-baseline="text-before-edge"></text></g><g stroke-linecap="round"><g transform="translate(1608.2542285080033 534.3530316346639) rotate(0 0.5765969900051005 53.63550092617504)"><path d="M0.59 -1.07 C0.63 16.93, 0.91 89.14, 1.14 107.11 M-0.56 0.99 C-0.75 19.25, -0.18 90.76, 0.19 108.56" stroke="#1e1e1e" stroke-width="2" fill="none"></path></g><g transform="translate(1608.2542285080033 534.3530316346639) rotate(0 0.5765969900051005 53.63550092617504)"><path d="M-10.44 80.51 C-8.44 90.96, -2.94 102.89, 0.19 108.56 M-10.44 80.51 C-7.54 88.64, -4.16 94.07, 0.19 108.56" stroke="#1e1e1e" stroke-width="2" fill="none"></path></g><g transform="translate(1608.2542285080033 534.3530316346639) rotate(0 0.5765969900051005 53.63550092617504)"><path d="M10.08 80.24 C4.39 90.89, 2.19 102.92, 0.19 108.56 M10.08 80.24 C7.68 88.56, 5.76 94.06, 0.19 108.56" stroke="#1e1e1e" stroke-width="2" fill="none"></path></g></g><mask></mask><g stroke-linecap="round" transform="translate(1462.4525716331148 641.2767969493466) rotate(0 144.4295194835862 86.53046101219252)"><path d="M181.25 21.75 C206.3 35.37, 229.08 50.41, 252.61 65.25 M181.25 21.75 C200.38 33.42, 219.43 45.19, 252.61 65.25 M252.61 65.25 C287.26 85.01, 288.75 85.08, 252.61 108.75 M252.61 65.25 C290.49 88.35, 288.01 86.29, 252.61 108.75 M252.61 108.75 C228.74 123.07, 206.82 135.51, 181.25 151.31 M252.61 108.75 C236.73 118.27, 220.81 126.63, 181.25 151.31 M181.25 151.31 C146.97 173.62, 143.16 172.46, 108.75 151.31 M181.25 151.31 C146.08 173.6, 143.02 171.37, 108.75 151.31 M108.75 151.31 C91.44 142.3, 76.88 132.11, 36.25 108.75 M108.75 151.31 C93 142.61, 77.97 134.09, 36.25 108.75 M36.25 108.75 C-1.83 88.3, -1.16 86.58, 36.25 65.25 M36.25 108.75 C0.15 86.16, -2 85.03, 36.25 65.25 M36.25 65.25 C63.12 48.1, 91.19 31.42, 108.75 21.75 M36.25 65.25 C64.12 47.82, 93.97 30.88, 108.75 21.75 M108.75 21.75 C143.89 -0.92, 146.07 -0.59, 181.25 21.75 M108.75 21.75 C146.79 -1.03, 144.32 1.95, 181.25 21.75" stroke="#1e1e1e" stroke-width="2" fill="none"></path></g><g transform="translate(1542.4273869169 690.5420274554428) rotate(0 64.23994445800781 37.5)"><text x="64.23994445800781" y="0" font-family="Virgil, Segoe UI Emoji" font-size="20px" fill="#1e1e1e" text-anchor="middle" style="white-space: pre;" direction="ltr" dominant-baseline="text-before-edge">Is APPs </text><text x="64.23994445800781" y="25" font-family="Virgil, Segoe UI Emoji" font-size="20px" fill="#1e1e1e" text-anchor="middle" style="white-space: pre;" direction="ltr" dominant-baseline="text-before-edge">access token</text><text x="64.23994445800781" y="50" font-family="Virgil, Segoe UI Emoji" font-size="20px" fill="#1e1e1e" text-anchor="middle" style="white-space: pre;" direction="ltr" dominant-baseline="text-before-edge">is Expired</text></g><g mask="url(#mask-bJwXM0OPvmh_L_uUtSpfq)" stroke-linecap="round"><g transform="translate(1613.8053508289686 815.2322167478974) rotate(0 2.8733637737566937 67.1394590237195)"><path d="M0.13 0.56 C1.41 22.92, 6.01 111.03, 6.9 133.24 M-1.26 -0.19 C0.03 22.37, 5.59 111.72, 6.56 134.23" stroke="#1e1e1e" stroke-width="2" fill="none"></path></g><g transform="translate(1613.8053508289686 815.2322167478974) rotate(0 2.8733637737566937 67.1394590237195)"><path d="M-5.21 106.63 C-1.73 115.02, -1.63 119.11, 6.56 134.23 M-5.21 106.63 C-1.19 113.23, 1.41 120.49, 6.56 134.23" stroke="#1e1e1e" stroke-width="2" fill="none"></path></g><g transform="translate(1613.8053508289686 815.2322167478974) rotate(0 2.8733637737566937 67.1394590237195)"><path d="M15.29 105.53 C13.94 114.2, 9.23 118.54, 6.56 134.23 M15.29 105.53 C13.97 112.59, 11.23 120.15, 6.56 134.23" stroke="#1e1e1e" stroke-width="2" fill="none"></path></g></g><mask id="mask-bJwXM0OPvmh_L_uUtSpfq"><rect x="0" y="0" fill="#fff" width="1719.5520783764819" height="1049.5111347953364"></rect><rect x="1600.6187323029208" y="869.871675771617" fill="#000" width="32.119964599609375" height="25" opacity="1"></rect></mask><g transform="translate(1600.6187323029203 869.8716757716168) rotate(0 16.005094962986107 12.37921168698)"><text x="16.059982299804688" y="0" font-family="Virgil, Segoe UI Emoji" font-size="20px" fill="#1e1e1e" text-anchor="middle" style="white-space: pre;" direction="ltr" dominant-baseline="text-before-edge">Yes</text></g><g mask="url(#mask-4wFCsI_xXaEPkSZY0vlMi)" stroke-linecap="round"><g transform="translate(1453.446431581962 726.8940199257538) rotate(0 -153.93490958947518 1.282769849840406)"><path d="M0.57 0.13 C-50.54 0.72, -255.76 3.33, -307.11 3.7 M-0.59 -0.85 C-51.76 -0.58, -256.4 1.44, -307.66 2.18" stroke="#1e1e1e" stroke-width="2" fill="none"></path></g><g transform="translate(1453.446431581962 726.8940199257538) rotate(0 -153.93490958947518 1.282769849840406)"><path d="M-279.59 -8.41 C-286.79 -4.21, -292.54 -2.12, -307.66 2.18 M-279.59 -8.41 C-287.66 -5.48, -296.11 -3.01, -307.66 2.18" stroke="#1e1e1e" stroke-width="2" fill="none"></path></g><g transform="translate(1453.446431581962 726.8940199257538) rotate(0 -153.93490958947518 1.282769849840406)"><path d="M-279.35 12.11 C-286.65 10.88, -292.46 7.53, -307.66 2.18 M-279.35 12.11 C-287.49 9.2, -296.01 5.83, -307.66 2.18" stroke="#1e1e1e" stroke-width="2" fill="none"></path></g></g><mask id="mask-4wFCsI_xXaEPkSZY0vlMi"><rect x="0" y="0" fill="#fff" width="1861.3162507609125" height="829.4595596254346"></rect><rect x="1285.8115326736392" y="715.6767897755942" fill="#000" width="27.399978637695312" height="25" opacity="1"></rect></mask><g transform="translate(1285.811532673639 715.6767897755942) rotate(0 14.09096922580153 12.644308361969877)"><text x="13.699989318847656" y="0" font-family="Virgil, Segoe UI Emoji" font-size="20px" fill="#1e1e1e" text-anchor="middle" style="white-space: pre;" direction="ltr" dominant-baseline="text-before-edge">NO</text></g><g stroke-linecap="round" transform="translate(1504.732992544571 959.7797112428191) rotate(0 131.94788776724943 61.26290248005148)"><path d="M30.63 0 C74.42 4.82, 112.52 4.01, 233.26 0 C257.28 -0.06, 264.89 8.97, 263.9 30.63 C267.16 50.68, 267.94 64.57, 263.9 91.89 C260.42 110.2, 251.85 123.67, 233.26 122.53 C169.05 121.23, 109.53 121.62, 30.63 122.53 C11.63 120.13, 2.96 110.06, 0 91.89 C1.4 72.09, -3.32 45.56, 0 30.63 C1.14 11.64, 12.26 2.76, 30.63 0" stroke="none" stroke-width="0" fill="#ffec99"></path><path d="M30.63 0 C72.74 -2.16, 117.79 -2.14, 233.26 0 M30.63 0 C108.15 -0.03, 186.33 -0.01, 233.26 0 M233.26 0 C252.16 -0.54, 264.64 11.58, 263.9 30.63 M233.26 0 C252.43 -2.01, 263.98 9.86, 263.9 30.63 M263.9 30.63 C263.1 45.98, 264.92 60.73, 263.9 91.89 M263.9 30.63 C263.24 50.62, 264.4 71.54, 263.9 91.89 M263.9 91.89 C264.33 112.55, 252.17 124.08, 233.26 122.53 M263.9 91.89 C265.06 114.39, 255.7 124.04, 233.26 122.53 M233.26 122.53 C153.07 122.5, 73.75 120.63, 30.63 122.53 M233.26 122.53 C182.45 121.31, 130.76 122.01, 30.63 122.53 M30.63 122.53 C9.63 124.26, 0.97 113.13, 0 91.89 M30.63 122.53 C11.77 124.17, -0.54 113.62, 0 91.89 M0 91.89 C0.29 73.23, 2.11 57.8, 0 30.63 M0 91.89 C-0.57 79.83, 0.23 67.72, 0 30.63 M0 30.63 C1.74 9.19, 11.37 -0.37, 30.63 0 M0 30.63 C2.05 10.12, 10.56 -1.1, 30.63 0" stroke="#f08c00" stroke-width="2" fill="none"></path></g><g transform="translate(1515.8093341651852 1006.1874802306879) rotate(0 106.3799057006836 12.5)"><text x="0" y="0" font-family="Virgil, Segoe UI Emoji" font-size="20px" fill="#1e1e1e" text-anchor="start" style="white-space: pre;" direction="ltr" dominant-baseline="text-before-edge">Refresh Access token</text></g><g stroke-linecap="round"><g transform="translate(1497.404868640746 1028.0029706882551) rotate(0 -212.8139847320487 -128.54649604335765)"><path d="M0.49 -0.55 C-70.27 -43.6, -353.67 -214.85, -424.83 -257.52 M-0.72 1.77 C-71.54 -41.18, -354.8 -212.81, -425.35 -256.2" stroke="#1e1e1e" stroke-width="2" fill="none"></path></g><g transform="translate(1497.404868640746 1028.0029706882551) rotate(0 -212.8139847320487 -128.54649604335765)"><path d="M-395.94 -250.29 C-405.04 -250.47, -412.97 -254.85, -425.35 -256.2 M-395.94 -250.29 C-406.65 -251.96, -416.02 -253.76, -425.35 -256.2" stroke="#1e1e1e" stroke-width="2" fill="none"></path></g><g transform="translate(1497.404868640746 1028.0029706882551) rotate(0 -212.8139847320487 -128.54649604335765)"><path d="M-406.63 -232.77 C-412.88 -237.84, -417.85 -247.07, -425.35 -256.2 M-406.63 -232.77 C-413.71 -240.43, -419.37 -248.3, -425.35 -256.2" stroke="#1e1e1e" stroke-width="2" fill="none"></path></g></g><mask></mask><g transform="translate(650.0510477131445 204.87612952676227) rotate(0 106.8799057006836 12.5)"><text x="0" y="0" font-family="Virgil, Segoe UI Emoji" font-size="20px" fill="#1e1e1e" text-anchor="start" style="white-space: pre;" direction="ltr" dominant-baseline="text-before-edge">use the access token</text></g><g stroke-linecap="round" transform="translate(2046.2897473858407 360.25473995300376) rotate(0 635.3737003261642 597.801554499195)"><path d="M32 0 C276.7 -0.9, 521.29 -1.4, 1238.75 0 M32 0 C506.15 -0.72, 980.78 -0.62, 1238.75 0 M1238.75 0 C1260.89 -0.04, 1270.31 9.4, 1270.75 32 M1238.75 0 C1257.96 1.8, 1272.34 8.55, 1270.75 32 M1270.75 32 C1274.5 346.16, 1275.86 659.43, 1270.75 1163.6 M1270.75 32 C1274.33 397.8, 1275.03 763.72, 1270.75 1163.6 M1270.75 1163.6 C1269.27 1186.38, 1260.71 1197.13, 1238.75 1195.6 M1270.75 1163.6 C1270.14 1185.58, 1260.56 1195.72, 1238.75 1195.6 M1238.75 1195.6 C875.29 1198.59, 512.84 1198.68, 32 1195.6 M1238.75 1195.6 C981.97 1192.47, 725.63 1192.47, 32 1195.6 M32 1195.6 C12.2 1194.5, -1.27 1184.64, 0 1163.6 M32 1195.6 C9.12 1194.13, -0.2 1187, 0 1163.6 M0 1163.6 C2.49 846.75, 2.33 530.35, 0 32 M0 1163.6 C3.04 777.57, 2.43 392.21, 0 32 M0 32 C0.58 12.62, 12.38 0.92, 32 0 M0 32 C0.99 11.31, 10.95 1.6, 32 0" stroke="#1e1e1e" stroke-width="2" fill="none"></path></g><g stroke-linecap="round"><g transform="translate(2525.83370936964 929.8644624116455) rotate(0 -391.2666794213029 -103.3218807474031)"><path d="M-0.62 0.75 C-131.14 -33.72, -652.54 -171.71, -782.67 -206.16 M1.26 0.09 C-129.47 -34.79, -653.21 -173.36, -783.7 -208.03" stroke="#1e1e1e" stroke-width="2" fill="none"></path></g><g transform="translate(2525.83370936964 929.8644624116455) rotate(0 -391.2666794213029 -103.3218807474031)"><path d="M-753.82 -210.72 C-762.69 -210.2, -773.26 -207.24, -783.7 -208.03 M-753.82 -210.72 C-764.62 -209.14, -776.09 -207.87, -783.7 -208.03" stroke="#1e1e1e" stroke-width="2" fill="none"></path></g><g transform="translate(2525.83370936964 929.8644624116455) rotate(0 -391.2666794213029 -103.3218807474031)"><path d="M-759.08 -190.89 C-766.27 -197.06, -775.06 -200.83, -783.7 -208.03 M-759.08 -190.89 C-768.13 -196.43, -777.71 -202.27, -783.7 -208.03" stroke="#1e1e1e" stroke-width="2" fill="none"></path></g></g><mask></mask><g transform="translate(2533.128710704693 420.28964025497567) rotate(0 250.397918701172 22.5)"><text x="0" y="0" font-family="Virgil, Segoe UI Emoji" font-size="36px" fill="#1e1e1e" text-anchor="start" style="white-space: pre;" direction="ltr" dominant-baseline="text-before-edge">Automated Contract trigger</text></g><g stroke-linecap="round" transform="translate(2444.4405208053677 1107.0087456415058) rotate(0 248.91892400252914 88.50561283964487)"><path d="M32 0 C191.49 1.51, 348.99 0.82, 465.84 0 M32 0 C188.6 0.81, 344.15 0.2, 465.84 0 M465.84 0 C485.2 -0.33, 499.39 9.58, 497.84 32 M465.84 0 C487.3 -0.68, 497.04 9.1, 497.84 32 M497.84 32 C500.36 73.34, 497.5 117.82, 497.84 145.01 M497.84 32 C496.96 61.25, 497.75 89.65, 497.84 145.01 M497.84 145.01 C499.78 167.59, 488.75 178.89, 465.84 177.01 M497.84 145.01 C498.6 164.06, 488.5 177.18, 465.84 177.01 M465.84 177.01 C301.43 175.05, 135.79 175.82, 32 177.01 M465.84 177.01 C350.28 177.33, 234.94 178.07, 32 177.01 M32 177.01 C12.1 176.29, -0.83 167.09, 0 145.01 M32 177.01 C12.73 176.3, -2.05 167.67, 0 145.01 M0 145.01 C-0.43 115.15, 1.56 79.59, 0 32 M0 145.01 C0.28 115.15, 0.19 86.23, 0 32 M0 32 C-1.46 8.82, 9.45 1.62, 32 0 M0 32 C0.68 10.86, 11.11 -0.41, 32 0" stroke="#1e1e1e" stroke-width="2" fill="none"></path></g><g transform="translate(2495.318661436322 1135.7422584923543) rotate(0 219.42984008789062 62.5)"><text x="0" y="0" font-family="Virgil, Segoe UI Emoji" font-size="20px" fill="#1e1e1e" text-anchor="start" style="white-space: pre;" direction="ltr" dominant-baseline="text-before-edge">Compare Miles ran to identify winner</text><text x="0" y="25" font-family="Virgil, Segoe UI Emoji" font-size="20px" fill="#1e1e1e" text-anchor="start" style="white-space: pre;" direction="ltr" dominant-baseline="text-before-edge">pay out rewards. Update data structures. </text><text x="0" y="50" font-family="Virgil, Segoe UI Emoji" font-size="20px" fill="#1e1e1e" text-anchor="start" style="white-space: pre;" direction="ltr" dominant-baseline="text-before-edge">Check if last payout event in competition. </text><text x="0" y="75" font-family="Virgil, Segoe UI Emoji" font-size="20px" fill="#1e1e1e" text-anchor="start" style="white-space: pre;" direction="ltr" dominant-baseline="text-before-edge">If so deal with accordingly.</text><text x="0" y="100" font-family="Virgil, Segoe UI Emoji" font-size="20px" fill="#1e1e1e" text-anchor="start" style="white-space: pre;" direction="ltr" dominant-baseline="text-before-edge"></text></g><g stroke-linecap="round"><g transform="translate(2652.8639176492143 1015.4069756374133) rotate(0 0.7170023809146642 34.66368436153812)"><path d="M0.87 0.82 C0.99 12.49, 0.17 57.68, 0.37 69.24 M-0.13 0.21 C0.38 12.15, 2.23 59.38, 2.52 70.73" stroke="#1e1e1e" stroke-width="2" fill="none"></path></g><g transform="translate(2652.8639176492143 1015.4069756374133) rotate(0 0.7170023809146642 34.66368436153812)"><path d="M-8.68 42.9 C-4.46 48.57, -2.95 58.9, 2.52 70.73 M-8.68 42.9 C-5.35 52.95, 0.43 63.8, 2.52 70.73" stroke="#1e1e1e" stroke-width="2" fill="none"></path></g><g transform="translate(2652.8639176492143 1015.4069756374133) rotate(0 0.7170023809146642 34.66368436153812)"><path d="M11.83 42.21 C10.49 48.22, 6.44 58.73, 2.52 70.73 M11.83 42.21 C7.56 52.34, 5.74 63.44, 2.52 70.73" stroke="#1e1e1e" stroke-width="2" fill="none"></path></g></g><mask></mask></svg>